HIERARCHY
ROOT Pelvis
{
	OFFSET 0.000000 0.000000 0.000000
	CHANNELS 6 Xposition Yposition Zposition Zrotation Yrotation Xrotation 
	JOINT Left_hip
	{
		OFFSET 0.076090 -0.089427 -0.010735
		CHANNELS 3 Zrotation Yrotation Xrotation
		JOINT Left_knee
		{
			OFFSET 0.030200 -0.359518 -0.003501
			CHANNELS 3 Zrotation Yrotation Xrotation
			JOINT Left_ankle
			{
				OFFSET -0.011005 -0.371022 -0.045888
				CHANNELS 3 Zrotation Yrotation Xrotation
				JOINT Left_foot
				{
					OFFSET 0.023930 -0.052103 0.111084
					CHANNELS 3 Zrotation Yrotation Xrotation
					End Site
					{
						OFFSET 0.000000 0.000000 0.000000
					}
				}
			}
		}
	}
	JOINT Right_hip
	{
		OFFSET -0.073836 -0.088112 -0.007709
		CHANNELS 3 Zrotation Yrotation Xrotation
		JOINT Right_knee
		{
			OFFSET -0.035715 -0.367809 -0.006536
			CHANNELS 3 Zrotation Yrotation Xrotation
			JOINT Right_ankle
			{
				OFFSET 0.013718 -0.371958 -0.043815
				CHANNELS 3 Zrotation Yrotation Xrotation
				JOINT Right_foot
				{
					OFFSET -0.021936 -0.046387 0.114542
					CHANNELS 3 Zrotation Yrotation Xrotation
					End Site
					{
						OFFSET 0.000000 0.000000 0.000000
					}
				}
			}
		}
	}
	JOINT Spine1
	{
		OFFSET -0.001865 0.102064 -0.019455
		CHANNELS 3 Zrotation Yrotation Xrotation
		JOINT Spine2
		{
			OFFSET 0.003082 0.129260 -0.001938
			CHANNELS 3 Zrotation Yrotation Xrotation
			JOINT Spine3
			{
				OFFSET 0.001104 0.048093 0.026561
				CHANNELS 3 Zrotation Yrotation Xrotation
				JOINT Neck
				{
					OFFSET -0.002010 0.204222 -0.047183
					CHANNELS 3 Zrotation Yrotation Xrotation
					JOINT Head
					{
						OFFSET 0.005050 0.063649 0.048489
						CHANNELS 3 Zrotation Yrotation Xrotation
						End Site
						{
							OFFSET 0.000000 0.000000 0.000000
						}
					}
				}
				JOINT Left_collar
				{
					OFFSET 0.072979 0.114065 -0.031633
					CHANNELS 3 Zrotation Yrotation Xrotation
					JOINT Left_shoulder
					{
						OFFSET 0.083419 0.032092 -0.006530
						CHANNELS 3 Zrotation Yrotation Xrotation
						JOINT Left_elbow
						{
							OFFSET 0.239393 -0.012014 -0.025060
							CHANNELS 3 Zrotation Yrotation Xrotation
							JOINT Left_wrist
							{
								OFFSET 0.227297 0.008116 0.000384
								CHANNELS 3 Zrotation Yrotation Xrotation
								JOINT Left_palm
								{
									OFFSET 0.074607 -0.009248 -0.012277
									CHANNELS 3 Zrotation Yrotation Xrotation
									End Site
									{
										OFFSET 0.000000 0.000000 0.000000
									}
								}
							}
						}
					}
				}
				JOINT Right_collar
				{
					OFFSET -0.074980 0.111880 -0.037894
					CHANNELS 3 Zrotation Yrotation Xrotation
					JOINT Right_shoulder
					{
						OFFSET -0.087565 0.034353 -0.009323
						CHANNELS 3 Zrotation Yrotation Xrotation
						JOINT Right_elbow
						{
							OFFSET -0.236838 -0.013719 -0.019794
							CHANNELS 3 Zrotation Yrotation Xrotation
							JOINT Right_wrist
							{
								OFFSET -0.235053 0.006433 -0.003853
								CHANNELS 3 Zrotation Yrotation Xrotation
								JOINT Right_palm
								{
									OFFSET -0.075499 -0.006894 -0.009792
									CHANNELS 3 Zrotation Yrotation Xrotation
									End Site
									{
										OFFSET 0.000000 0.000000 0.000000
									}
								}
							}
						}
					}
				}
			}
		}
	}
}
MOTION
Frames: 14
Frame Time: 0.100000
0.174645 0.286812 -0.286227 175.445108 27.973244 -24.763347 12.478569 -4.898195 -62.247180 -1.746883 16.086602 91.336452 6.070304 -7.831660 11.940785 -15.221392 14.159907 -29.560053 -7.604593 0.684996 -59.819314 -3.701813 -15.160574 93.412101 -5.055603 13.044382 3.950361 15.539029 -19.861880 -12.987603 0.630455 -1.398211 26.621007 1.648879 1.853871 -12.050048 0.067375 -1.504365 -5.381449 -10.824460 2.397166 -1.905104 -7.216166 8.064459 2.573453 -15.109910 -9.913528 1.157234 -68.520471 -35.648440 21.716831 160.745293 -39.741653 -117.813434 2.964187 -8.475674 -21.650385 -9.015395 1.995968 3.728592 11.411397 11.998054 1.802792 67.474315 29.085506 24.691033 -156.545531 41.332935 -119.168598 0.172560 9.477177 -29.716630 5.099003 4.586215 8.671503 
0.175331 0.286371 -0.287034 175.006519 27.686391 -24.985289 12.920713 -4.761028 -62.390289 -1.827211 15.941997 91.330940 5.876372 -7.670816 12.187305 -15.109369 13.553880 -28.781833 -7.349929 1.173284 -59.834861 -3.400981 -14.993117 93.066762 -4.669059 13.445446 4.046990 15.444164 -19.691035 -12.746591 0.025932 -0.898628 25.688822 2.480450 1.762917 -12.867906 0.496586 -1.318782 -5.453080 -8.230431 2.424695 -0.142184 -5.180130 7.382949 4.936254 -14.145164 -10.365869 0.661065 -66.767824 -36.752102 21.039257 159.484682 -39.459532 -117.182282 3.861219 -8.360005 -21.007467 -9.201672 1.821445 3.507663 11.260144 12.245215 1.608072 66.694228 29.980237 24.453660 -156.840007 41.582450 -118.802161 -0.486283 9.683670 -29.381872 4.879997 4.613182 8.955740 
0.175081 0.287615 -0.286281 174.296727 27.753980 -24.358116 14.018181 -5.014191 -64.146561 -1.631263 16.001921 92.024818 5.425088 -7.859202 12.352221 -14.596368 11.854637 -27.900724 -7.690967 2.019855 -61.210181 -3.887926 -15.206356 93.606863 -4.762393 14.698208 3.427996 16.657809 -21.302768 -12.464002 -0.920644 -0.373479 23.975457 3.882714 1.688330 -14.450798 1.028198 -1.447538 -5.950489 -5.489967 1.509011 3.267632 -3.227954 6.360540 8.191332 -15.537690 -9.216207 1.487827 -69.008133 -36.176202 23.238389 158.695942 -40.649613 -116.713311 2.533781 -8.777201 -21.450047 -9.422474 1.586596 3.275701 13.283756 10.315230 2.367823 66.410182 29.625463 24.424922 -156.571222 41.965017 -117.459956 0.619175 10.204717 -30.065290 3.984029 4.711130 9.693572 
0.174230 0.289828 -0.283904 173.662510 27.854952 -24.840797 14.611717 -5.267634 -64.159591 -2.446809 15.425026 92.309843 4.830144 -8.637980 11.660840 -14.144638 11.566328 -27.504971 -7.481645 2.913193 -61.218308 -4.007560 -15.189062 94.060383 -4.725317 13.985679 3.016807 16.095091 -20.720259 -11.871241 -1.705350 -0.122294 23.050126 4.887792 1.529397 -14.022807 1.314748 -1.830706 -6.132362 -2.737723 0.959396 4.292959 -2.033924 5.197267 10.374367 -17.559067 -8.335528 2.433012 -69.617923 -35.379970 23.770420 158.619150 -41.455672 -116.646293 0.919286 -9.016309 -21.397204 -9.751002 1.070737 2.400039 15.390754 8.724559 2.840841 65.315453 28.440871 23.120592 -154.662179 41.174760 -115.864280 1.590835 10.459433 -31.711307 4.102305 4.693561 9.993649 
0.173480 0.289400 -0.286118 173.330127 27.877203 -25.053916 14.645777 -4.970183 -63.970721 -2.496780 15.552366 92.052284 4.594473 -8.369341 11.797695 -13.727882 11.325053 -27.364159 -7.339817 2.854785 -61.002683 -3.804467 -15.194818 93.677927 -4.370803 13.682322 3.209835 15.456630 -20.516324 -11.652026 -1.747220 -0.183449 23.276911 5.018191 1.297339 -13.881753 1.364301 -1.965222 -5.893269 -2.028328 0.023378 3.960670 -0.985612 4.429928 10.227164 -17.609625 -8.005300 2.383054 -68.832772 -34.872148 23.210894 158.330952 -41.530477 -116.761867 1.230329 -8.956978 -21.228520 -10.125849 0.820895 1.998046 15.161075 7.981550 2.669689 63.725807 27.350088 21.561724 -153.931739 40.799385 -115.312782 1.527479 10.137254 -30.838336 4.345919 4.825851 9.603484 
0.173547 0.290496 -0.287339 173.285659 27.793319 -25.593675 14.574562 -4.978781 -63.069201 -3.281497 15.068963 91.632884 4.323602 -8.719521 10.756379 -13.456459 11.477556 -27.025839 -7.292133 2.518261 -60.380713 -3.564015 -15.318164 93.491590 -3.841266 13.486353 3.400722 14.719483 -19.741443 -11.353436 -1.693456 -0.180188 23.590529 5.168893 1.116776 -12.789125 1.395730 -1.980018 -5.801270 -2.252561 -0.272034 3.987306 -1.269885 3.673503 10.309776 -17.632090 -8.558481 2.445584 -68.230490 -34.947029 22.794581 157.835983 -41.472785 -116.772324 1.354704 -8.991036 -21.538641 -10.134575 0.789635 2.080441 15.217077 8.495512 2.639124 62.435927 27.238610 20.764794 -154.007347 40.530455 -116.026393 1.827695 10.247586 -31.410033 4.531960 4.843530 9.670619 
0.174058 0.290983 -0.286179 173.533465 27.793773 -25.811958 14.650317 -5.006850 -62.956811 -3.653242 15.048251 91.720964 3.850767 -9.146414 11.372869 -13.641042 11.281676 -27.139977 -7.418026 2.542152 -59.968675 -3.520762 -15.324108 93.631282 -4.520474 13.729929 2.822621 15.802632 -19.826259 -11.175947 -1.776846 -0.204345 23.398753 5.267426 0.982355 -12.362434 1.212590 -2.099408 -5.762526 -2.838408 0.243985 6.007391 -2.198396 3.940679 11.892833 -18.070894 -8.637608 2.838074 -67.793802 -35.103000 23.000815 157.581920 -41.976533 -116.749920 1.858527 -9.506567 -21.074928 -9.889444 0.995918 2.115856 15.950802 8.641674 2.926723 62.090157 27.649766 21.284710 -154.088831 41.245106 -116.419219 1.353848 10.437684 -31.634502 4.271155 4.748693 10.013888 
0.174782 0.291179 -0.285312 173.842880 27.798400 -25.849481 14.358913 -5.105785 -62.657987 -3.014675 15.382988 91.887453 4.280528 -8.528515 11.221111 -13.558781 11.106121 -27.207069 -7.483974 2.702651 -59.940106 -3.466454 -15.143414 93.776996 -4.641422 13.528684 2.832712 15.891385 -19.561236 -11.012298 -1.659333 -0.346307 23.281091 5.151214 1.070792 -12.135331 0.957672 -2.142693 -5.461227 -3.869275 0.995049 7.547865 -3.407447 4.722969 13.707297 -18.058665 -8.389303 3.016505 -67.980132 -35.205848 23.139219 157.913866 -41.936857 -117.147335 2.016636 -9.633165 -21.554223 -9.801680 1.043622 2.465031 16.117697 8.442344 3.009018 62.014550 28.222264 21.643791 -154.071901 41.399587 -116.428515 1.067380 10.302433 -30.960549 4.366012 4.757097 9.923891 
0.175475 0.291135 -0.286209 174.158534 27.774794 -25.666513 14.267431 -5.324890 -62.673175 -3.098519 15.420118 91.656001 4.265540 -8.503007 11.316243 -13.712842 11.102446 -27.252645 -7.588846 2.910047 -60.082357 -3.475364 -14.938436 93.710797 -4.744305 13.509415 2.835548 16.141064 -19.707929 -11.037179 -1.458586 -0.555388 23.926873 4.841590 1.107946 -12.099573 0.806909 -2.133249 -5.394162 -4.666265 1.111607 7.228849 -3.926559 5.097907 13.155363 -18.065571 -8.281136 3.004741 -67.990790 -34.905500 23.180357 157.949193 -41.886102 -117.471505 1.738059 -9.886124 -22.563335 -9.454651 1.180300 2.876483 15.856235 8.585063 2.919680 61.762836 28.447869 21.688727 -153.769195 41.364030 -116.412855 0.989547 10.262246 -30.704747 4.217639 4.730381 9.958136 
0.176475 0.290908 -0.286010 174.266067 27.745318 -25.398463 14.219817 -5.242799 -62.751413 -3.182965 15.335052 91.526158 4.189722 -8.569928 11.033437 -13.660407 11.318836 -27.135749 -7.495354 3.011946 -60.383351 -3.482056 -14.687537 93.676283 -4.539432 13.548880 3.007460 16.023082 -19.966951 -11.421699 -1.528744 -0.535825 24.589330 4.736634 1.008403 -11.880151 1.013001 -2.136049 -5.580399 -4.430942 0.368780 5.637487 -3.139659 4.461044 10.662258 -17.480493 -8.780751 2.802278 -68.376239 -34.853137 23.205844 157.357347 -42.407533 -116.892297 1.004349 -9.761563 -22.675739 -9.002898 1.191486 3.016594 14.912061 9.118781 2.598583 62.054580 28.388079 21.411113 -152.916013 42.018686 -115.390978 1.710397 10.025588 -29.917219 3.914789 4.788608 9.818072 
0.177757 0.290115 -0.284990 174.265994 27.715790 -25.259036 14.249476 -5.004830 -62.437943 -4.120504 14.747014 91.063961 3.823127 -9.162913 9.989314 -13.521007 11.663785 -26.711712 -7.372386 3.020766 -60.479310 -3.489074 -14.633163 93.619785 -3.807956 13.267841 3.270675 15.142432 -19.477103 -11.551427 -1.869253 -0.396175 25.417406 4.831009 0.691667 -11.772896 1.307576 -2.188670 -5.696824 -3.546614 -0.231671 3.855031 -1.923851 3.070186 8.936384 -16.272096 -10.331295 2.289810 -67.799103 -36.023107 22.835165 155.228262 -43.384803 -115.044300 1.919671 -9.612453 -21.457783 -8.549521 1.231112 2.899856 13.781646 10.229303 2.001058 62.288179 28.184543 21.059006 -151.295248 43.312820 -114.023557 1.680452 9.801239 -30.027284 3.530279 4.767827 9.862758 
0.177354 0.288562 -0.283857 174.186589 27.422067 -25.094114 14.325867 -4.304024 -62.233362 -4.271930 14.714701 90.963109 3.745117 -9.414160 9.747828 -13.621703 12.139320 -26.688067 -7.174934 2.854534 -60.436554 -3.347746 -14.761720 93.447319 -3.637813 13.205311 3.353992 14.773516 -18.974368 -11.416789 -2.066576 -0.375959 25.763137 4.814192 0.530424 -11.865324 1.397809 -2.234104 -5.765893 -2.034329 -0.750622 3.274302 -0.676558 2.006594 9.163300 -16.096154 -11.319032 2.061668 -67.142546 -36.945178 22.478122 154.170827 -44.475916 -113.517160 2.254451 -9.610070 -18.786307 -8.376524 1.200139 2.232165 13.561810 11.152590 1.916006 62.542448 28.332949 20.899412 -149.379482 45.520947 -112.273104 1.363887 9.768781 -29.363326 3.450442 4.709195 9.812131 
0.176054 0.288605 -0.283793 173.963569 27.354195 -24.938838 14.433149 -4.132581 -62.480126 -4.330802 14.662390 91.074899 3.792856 -9.650114 9.655749 -13.771738 12.601990 -26.847896 -7.245324 2.452029 -60.521729 -3.346208 -15.050009 93.451641 -3.553005 13.618994 3.303568 14.796883 -19.079737 -11.512464 -2.029059 -0.242181 25.973058 4.901606 0.503041 -11.573941 1.558418 -2.161958 -5.895348 -1.128277 -1.128022 2.865171 0.142082 1.386816 8.313509 -16.064372 -11.857453 2.038648 -67.772677 -37.333012 23.051919 154.926270 -43.992057 -113.958515 2.513098 -9.511993 -18.698924 -8.291856 1.225863 2.251861 13.426123 11.647685 2.010024 63.011804 28.395408 20.969655 -149.515682 45.535262 -112.552763 0.763190 9.836392 -30.140549 3.588500 4.718951 9.752336 
0.175331 0.288153 -0.284399 173.786417 27.522774 -24.849687 14.275159 -4.283077 -62.653529 -4.259934 14.489663 91.011496 3.975878 -9.772985 9.682348 -14.122961 12.855763 -27.141036 -7.270376 2.169058 -60.456134 -3.409485 -15.079817 93.278576 -3.464969 13.922693 3.228465 14.985349 -19.306223 -11.923678 -1.746086 -0.126869 26.434996 4.957116 0.655988 -11.591123 1.747724 -2.011545 -5.769652 -1.424406 -0.871009 2.096697 0.012290 1.412431 7.412648 -15.281982 -11.962416 1.576285 -68.575277 -38.150854 23.371370 156.260206 -42.695056 -114.297569 4.308809 -9.823907 -18.166984 -7.980207 1.368754 2.873096 13.066497 11.665879 1.943550 63.655917 28.112079 21.078690 -150.509955 45.059296 -113.043002 -0.665376 10.177984 -30.104779 3.492610 4.630960 9.886486 
